<svg xmlns="http://www.w3.org/2000/svg" viewBox="0 0 880 500" role="img" aria-label="Chatterbox application interface">
  <rect width="880" height="500" fill="#f5f7fb"/>
  <rect width="248" height="500" fill="#ffffff"/>
  <line x1="248" y1="0" x2="248" y2="500" stroke="#d9e0ef" stroke-width="1"/>
  <text x="16" y="36" fill="#5a6476" font-family="Inter, Segoe UI, Arial, sans-serif" font-size="13" font-weight="500">Conversations</text>
  <rect x="16" y="48" width="216" height="40" rx="10" fill="#eef3ff" stroke="#3f6fff" stroke-width="1"/>
  <text x="28" y="74" fill="#101725" font-family="Inter, Segoe UI, Arial, sans-serif" font-size="14">Research notes</text>
  <rect x="16" y="94" width="216" height="36" rx="10" fill="#ffffff" stroke="#d9e0ef" stroke-width="1"/>
  <text x="28" y="117" fill="#101725" font-family="Inter, Segoe UI, Arial, sans-serif" font-size="14">API integration</text>
  <line x1="16" y1="168" x2="232" y2="168" stroke="#d9e0ef"/>
  <text x="16" y="196" fill="#5a6476" font-family="Inter, Segoe UI, Arial, sans-serif" font-size="13" font-weight="500">Prompt presets</text>
  <rect x="16" y="208" width="216" height="52" rx="10" fill="#ffffff" stroke="#d9e0ef" stroke-width="1"/>
  <text x="28" y="230" fill="#101725" font-family="Inter, Segoe UI, Arial, sans-serif" font-size="13" font-weight="600">Technical writer</text>
  <text x="28" y="248" fill="#5a6476" font-family="Inter, Segoe UI, Arial, sans-serif" font-size="11">gpt-4o-mini ť temp 0.4</text>
  <rect x="16" y="440" width="216" height="40" rx="10" fill="#3f6fff"/>
  <text x="88" y="465" fill="#ffffff" font-family="Inter, Segoe UI, Arial, sans-serif" font-size="13" font-weight="500" text-anchor="middle">New conversation</text>
  <text x="268" y="40" fill="#101725" font-family="Inter, Segoe UI, Arial, sans-serif" font-size="20" font-weight="600">Research notes</text>
  <rect x="268" y="52" width="280" height="36" rx="10" fill="#ffffff" stroke="#d9e0ef" stroke-width="1"/>
  <text x="280" y="75" fill="#5a6476" font-family="Inter, Segoe UI, Arial, sans-serif" font-size="12">Preset</text>
  <rect x="768" y="24" width="96" height="36" rx="10" fill="#ffffff" stroke="#d9e0ef" stroke-width="1"/>
  <text x="816" y="47" fill="#101725" font-family="Inter, Segoe UI, Arial, sans-serif" font-size="13" text-anchor="middle">Dark mode</text>
  <rect x="268" y="88" width="584" height="312" rx="12" fill="#ffffff" stroke="#d9e0ef" stroke-width="1"/>
  <text x="284" y="118" fill="#5a6476" font-family="Inter, Segoe UI, Arial, sans-serif" font-size="11" letter-spacing="0.56">USER</text>
  <rect x="468" y="124" width="368" height="56" rx="12" fill="#eef3ff" stroke="#d9e0ef" stroke-width="1"/>
  <text x="484" y="158" fill="#101725" font-family="Inter, Segoe UI, Arial, sans-serif" font-size="14">Outline a file-backed chat architecture.</text>
  <text x="284" y="208" fill="#5a6476" font-family="Inter, Segoe UI, Arial, sans-serif" font-size="11" letter-spacing="0.56">ASSISTANT</text>
  <rect x="284" y="214" width="420" height="88" rx="12" fill="#ffffff" stroke="#d9e0ef" stroke-width="1"/>
  <text x="300" y="244" fill="#101725" font-family="Inter, Segoe UI, Arial, sans-serif" font-size="14">Use a Fastify proxy so API keys remain server-side.</text>
  <text x="300" y="268" fill="#5a6476" font-family="Inter, Segoe UI, Arial, sans-serif" font-size="14">Store each thread as JSON under server/data/chats/.</text>
  <rect x="268" y="416" width="584" height="52" rx="12" fill="#ffffff" stroke="#d9e0ef" stroke-width="1"/>
  <rect x="280" y="428" width="72" height="36" rx="10" fill="#ffffff" stroke="#d9e0ef" stroke-width="1"/>
  <text x="316" y="451" fill="#101725" font-family="Inter, Segoe UI, Arial, sans-serif" font-size="13" text-anchor="middle">Attach</text>
  <rect x="360" y="428" width="380" height="36" rx="10" fill="#ffffff" stroke="#d9e0ef" stroke-width="1"/>
  <text x="376" y="451" fill="#9aa6c0" font-family="Inter, Segoe UI, Arial, sans-serif" font-size="14">Message Chatterboxť</text>
  <rect x="748" y="428" width="92" height="36" rx="10" fill="#3f6fff"/>
  <text x="794" y="451" fill="#ffffff" font-family="Inter, Segoe UI, Arial, sans-serif" font-size="13" font-weight="500" text-anchor="middle">Send</text>
</svg>
